<mxfile host="app.diagrams.net" modified="2023-10-03T22:17:54.775Z" agent="Mozilla/5.0 (Windows NT 10.0; Win64; x64) AppleWebKit/537.36 (KHTML, like Gecko) Chrome/117.0.0.0 Safari/537.36" etag="Bj5UU8P3h9F6vPUPn1YE" version="22.0.2" type="device">
  <diagram name="Сторінка-1" id="kH-Sm3sERJHA9nx4QMtG">
    <mxGraphModel dx="1050" dy="542" grid="1" gridSize="10" guides="1" tooltips="1" connect="1" arrows="1" fold="1" page="1" pageScale="1" pageWidth="827" pageHeight="1169" math="0" shadow="0">
      <root>
        <mxCell id="0" />
        <mxCell id="1" parent="0" />
        <mxCell id="LMQ09DLQnsgns6uZQvVl-2" value="початок" style="ellipse;whiteSpace=wrap;html=1;" vertex="1" parent="1">
          <mxGeometry x="354" y="10" width="120" height="40" as="geometry" />
        </mxCell>
        <mxCell id="LMQ09DLQnsgns6uZQvVl-6" value="X" style="shape=parallelogram;perimeter=parallelogramPerimeter;whiteSpace=wrap;html=1;fixedSize=1;" vertex="1" parent="1">
          <mxGeometry x="370" y="80" width="80" height="40" as="geometry" />
        </mxCell>
        <mxCell id="LMQ09DLQnsgns6uZQvVl-9" value="" style="endArrow=classic;html=1;rounded=0;exitX=0.467;exitY=1;exitDx=0;exitDy=0;exitPerimeter=0;" edge="1" parent="1" source="LMQ09DLQnsgns6uZQvVl-2">
          <mxGeometry width="50" height="50" relative="1" as="geometry">
            <mxPoint x="410" y="60" as="sourcePoint" />
            <mxPoint x="410" y="80" as="targetPoint" />
          </mxGeometry>
        </mxCell>
        <mxCell id="LMQ09DLQnsgns6uZQvVl-11" value="" style="endArrow=classic;html=1;rounded=0;exitX=0.467;exitY=1;exitDx=0;exitDy=0;exitPerimeter=0;" edge="1" parent="1">
          <mxGeometry width="50" height="50" relative="1" as="geometry">
            <mxPoint x="410" y="50" as="sourcePoint" />
            <mxPoint x="410" y="80" as="targetPoint" />
          </mxGeometry>
        </mxCell>
        <mxCell id="LMQ09DLQnsgns6uZQvVl-20" value="" style="endArrow=classic;html=1;rounded=0;" edge="1" parent="1">
          <mxGeometry width="50" height="50" relative="1" as="geometry">
            <mxPoint x="409.5" y="120" as="sourcePoint" />
            <mxPoint x="409.5" y="160" as="targetPoint" />
            <Array as="points">
              <mxPoint x="409.5" y="140" />
            </Array>
          </mxGeometry>
        </mxCell>
        <mxCell id="LMQ09DLQnsgns6uZQvVl-21" value="вираз&lt;sub&gt;A&lt;/sub&gt;" style="rounded=0;whiteSpace=wrap;html=1;" vertex="1" parent="1">
          <mxGeometry x="370" y="160" width="80" height="50" as="geometry" />
        </mxCell>
        <mxCell id="LMQ09DLQnsgns6uZQvVl-25" value="" style="endArrow=classic;html=1;rounded=0;" edge="1" parent="1">
          <mxGeometry width="50" height="50" relative="1" as="geometry">
            <mxPoint x="409.5" y="220" as="sourcePoint" />
            <mxPoint x="410" y="230" as="targetPoint" />
            <Array as="points">
              <mxPoint x="410" y="210" />
            </Array>
          </mxGeometry>
        </mxCell>
        <mxCell id="LMQ09DLQnsgns6uZQvVl-26" value="x&amp;lt;-1" style="rhombus;whiteSpace=wrap;html=1;" vertex="1" parent="1">
          <mxGeometry x="370" y="230" width="80" height="40" as="geometry" />
        </mxCell>
        <mxCell id="LMQ09DLQnsgns6uZQvVl-31" value="" style="endArrow=none;html=1;rounded=0;" edge="1" parent="1">
          <mxGeometry width="50" height="50" relative="1" as="geometry">
            <mxPoint x="370" y="249.5" as="sourcePoint" />
            <mxPoint x="300" y="249.5" as="targetPoint" />
            <Array as="points">
              <mxPoint x="340" y="249.5" />
            </Array>
          </mxGeometry>
        </mxCell>
        <mxCell id="LMQ09DLQnsgns6uZQvVl-32" value="" style="endArrow=none;html=1;rounded=0;" edge="1" parent="1">
          <mxGeometry width="50" height="50" relative="1" as="geometry">
            <mxPoint x="300" y="330" as="sourcePoint" />
            <mxPoint x="300" y="250" as="targetPoint" />
          </mxGeometry>
        </mxCell>
        <mxCell id="LMQ09DLQnsgns6uZQvVl-37" value="" style="endArrow=none;html=1;rounded=0;" edge="1" parent="1">
          <mxGeometry width="50" height="50" relative="1" as="geometry">
            <mxPoint x="450" y="249.5" as="sourcePoint" />
            <mxPoint x="480" y="250" as="targetPoint" />
          </mxGeometry>
        </mxCell>
        <mxCell id="LMQ09DLQnsgns6uZQvVl-39" value="" style="endArrow=classic;html=1;rounded=0;" edge="1" parent="1">
          <mxGeometry width="50" height="50" relative="1" as="geometry">
            <mxPoint x="480" y="250" as="sourcePoint" />
            <mxPoint x="480" y="290" as="targetPoint" />
          </mxGeometry>
        </mxCell>
        <mxCell id="LMQ09DLQnsgns6uZQvVl-40" value="B=вираз&lt;sub&gt;1&lt;/sub&gt;" style="rounded=0;whiteSpace=wrap;html=1;" vertex="1" parent="1">
          <mxGeometry x="445" y="290" width="65" height="30" as="geometry" />
        </mxCell>
        <mxCell id="LMQ09DLQnsgns6uZQvVl-42" value="-1≤x &amp;amp;&amp;amp; x&amp;lt;3" style="rhombus;whiteSpace=wrap;html=1;" vertex="1" parent="1">
          <mxGeometry x="350" y="350" width="100" height="70" as="geometry" />
        </mxCell>
        <mxCell id="LMQ09DLQnsgns6uZQvVl-49" value="" style="endArrow=none;html=1;rounded=0;" edge="1" parent="1">
          <mxGeometry width="50" height="50" relative="1" as="geometry">
            <mxPoint x="300" y="385" as="sourcePoint" />
            <mxPoint x="350" y="384.5" as="targetPoint" />
          </mxGeometry>
        </mxCell>
        <mxCell id="LMQ09DLQnsgns6uZQvVl-52" value="" style="endArrow=none;html=1;rounded=0;" edge="1" parent="1">
          <mxGeometry width="50" height="50" relative="1" as="geometry">
            <mxPoint x="300" y="460" as="sourcePoint" />
            <mxPoint x="300" y="380" as="targetPoint" />
          </mxGeometry>
        </mxCell>
        <mxCell id="LMQ09DLQnsgns6uZQvVl-57" value="B=вираз&lt;sub style=&quot;border-color: var(--border-color);&quot;&gt;2&lt;/sub&gt;" style="rounded=0;whiteSpace=wrap;html=1;" vertex="1" parent="1">
          <mxGeometry x="445" y="410" width="70" height="30" as="geometry" />
        </mxCell>
        <mxCell id="LMQ09DLQnsgns6uZQvVl-59" value="" style="endArrow=classic;html=1;rounded=0;" edge="1" parent="1">
          <mxGeometry width="50" height="50" relative="1" as="geometry">
            <mxPoint x="399.5" y="452" as="sourcePoint" />
            <mxPoint x="399.5" y="482" as="targetPoint" />
          </mxGeometry>
        </mxCell>
        <mxCell id="LMQ09DLQnsgns6uZQvVl-60" value="" style="endArrow=none;html=1;rounded=0;" edge="1" parent="1">
          <mxGeometry width="50" height="50" relative="1" as="geometry">
            <mxPoint x="320" y="585" as="sourcePoint" />
            <mxPoint x="320" y="585" as="targetPoint" />
            <Array as="points" />
          </mxGeometry>
        </mxCell>
        <mxCell id="LMQ09DLQnsgns6uZQvVl-62" value="x≥3" style="rhombus;whiteSpace=wrap;html=1;" vertex="1" parent="1">
          <mxGeometry x="360" y="480" width="80" height="30" as="geometry" />
        </mxCell>
        <mxCell id="LMQ09DLQnsgns6uZQvVl-63" value="" style="endArrow=none;html=1;rounded=0;" edge="1" parent="1">
          <mxGeometry width="50" height="50" relative="1" as="geometry">
            <mxPoint x="300" y="494.5" as="sourcePoint" />
            <mxPoint x="360" y="494.5" as="targetPoint" />
          </mxGeometry>
        </mxCell>
        <mxCell id="LMQ09DLQnsgns6uZQvVl-64" value="" style="endArrow=none;html=1;rounded=0;" edge="1" parent="1">
          <mxGeometry width="50" height="50" relative="1" as="geometry">
            <mxPoint x="299" y="591" as="sourcePoint" />
            <mxPoint x="299" y="501" as="targetPoint" />
            <Array as="points">
              <mxPoint x="299" y="491" />
            </Array>
          </mxGeometry>
        </mxCell>
        <mxCell id="LMQ09DLQnsgns6uZQvVl-65" value="" style="endArrow=none;html=1;rounded=0;" edge="1" parent="1">
          <mxGeometry width="50" height="50" relative="1" as="geometry">
            <mxPoint x="299" y="590" as="sourcePoint" />
            <mxPoint x="489" y="590" as="targetPoint" />
            <Array as="points">
              <mxPoint x="329" y="590" />
            </Array>
          </mxGeometry>
        </mxCell>
        <mxCell id="LMQ09DLQnsgns6uZQvVl-67" value="" style="endArrow=none;html=1;rounded=0;" edge="1" parent="1">
          <mxGeometry width="50" height="50" relative="1" as="geometry">
            <mxPoint x="440" y="494.5" as="sourcePoint" />
            <mxPoint x="485" y="494.5" as="targetPoint" />
          </mxGeometry>
        </mxCell>
        <mxCell id="LMQ09DLQnsgns6uZQvVl-70" value="B=вираз&lt;sub style=&quot;border-color: var(--border-color);&quot;&gt;3&lt;/sub&gt;" style="rounded=0;whiteSpace=wrap;html=1;" vertex="1" parent="1">
          <mxGeometry x="450" y="530" width="70" height="30" as="geometry" />
        </mxCell>
        <mxCell id="LMQ09DLQnsgns6uZQvVl-72" value="" style="endArrow=classic;html=1;rounded=0;" edge="1" parent="1">
          <mxGeometry width="50" height="50" relative="1" as="geometry">
            <mxPoint x="399.5" y="595" as="sourcePoint" />
            <mxPoint x="400" y="610" as="targetPoint" />
            <Array as="points">
              <mxPoint x="400" y="585" />
            </Array>
          </mxGeometry>
        </mxCell>
        <mxCell id="LMQ09DLQnsgns6uZQvVl-73" value="y=A+B" style="rounded=0;whiteSpace=wrap;html=1;" vertex="1" parent="1">
          <mxGeometry x="370" y="610" width="70" height="30" as="geometry" />
        </mxCell>
        <mxCell id="LMQ09DLQnsgns6uZQvVl-74" value="y" style="shape=document;whiteSpace=wrap;html=1;boundedLbl=1;" vertex="1" parent="1">
          <mxGeometry x="370" y="670" width="70" height="50" as="geometry" />
        </mxCell>
        <mxCell id="LMQ09DLQnsgns6uZQvVl-75" value="" style="endArrow=classic;html=1;rounded=0;" edge="1" parent="1">
          <mxGeometry width="50" height="50" relative="1" as="geometry">
            <mxPoint x="404.5" y="640" as="sourcePoint" />
            <mxPoint x="404.5" y="670" as="targetPoint" />
            <Array as="points">
              <mxPoint x="404.5" y="640" />
            </Array>
          </mxGeometry>
        </mxCell>
        <mxCell id="LMQ09DLQnsgns6uZQvVl-76" value="x&amp;lt;-1" style="rhombus;whiteSpace=wrap;html=1;" vertex="1" parent="1">
          <mxGeometry x="360" y="750" width="80" height="50" as="geometry" />
        </mxCell>
        <mxCell id="LMQ09DLQnsgns6uZQvVl-77" value="" style="endArrow=none;html=1;rounded=0;" edge="1" parent="1">
          <mxGeometry width="50" height="50" relative="1" as="geometry">
            <mxPoint x="280" y="775" as="sourcePoint" />
            <mxPoint x="360" y="774.5" as="targetPoint" />
          </mxGeometry>
        </mxCell>
        <mxCell id="LMQ09DLQnsgns6uZQvVl-80" value="" style="endArrow=classic;html=1;rounded=0;" edge="1" parent="1">
          <mxGeometry width="50" height="50" relative="1" as="geometry">
            <mxPoint x="280" y="774" as="sourcePoint" />
            <mxPoint x="280" y="814" as="targetPoint" />
          </mxGeometry>
        </mxCell>
        <mxCell id="LMQ09DLQnsgns6uZQvVl-81" value="x≥3" style="rhombus;whiteSpace=wrap;html=1;" vertex="1" parent="1">
          <mxGeometry x="250" y="810" width="70" height="30" as="geometry" />
        </mxCell>
        <mxCell id="LMQ09DLQnsgns6uZQvVl-82" value="" style="endArrow=none;html=1;rounded=0;" edge="1" parent="1">
          <mxGeometry width="50" height="50" relative="1" as="geometry">
            <mxPoint x="220" y="825" as="sourcePoint" />
            <mxPoint x="250" y="824.5" as="targetPoint" />
          </mxGeometry>
        </mxCell>
        <mxCell id="LMQ09DLQnsgns6uZQvVl-84" value="" style="endArrow=classic;html=1;rounded=0;" edge="1" parent="1">
          <mxGeometry width="50" height="50" relative="1" as="geometry">
            <mxPoint x="220" y="825" as="sourcePoint" />
            <mxPoint x="220" y="855" as="targetPoint" />
          </mxGeometry>
        </mxCell>
        <mxCell id="LMQ09DLQnsgns6uZQvVl-85" value="B=вираз&lt;sub style=&quot;border-color: var(--border-color);&quot;&gt;2&lt;/sub&gt;" style="rounded=0;whiteSpace=wrap;html=1;" vertex="1" parent="1">
          <mxGeometry x="190" y="850" width="70" height="30" as="geometry" />
        </mxCell>
        <mxCell id="LMQ09DLQnsgns6uZQvVl-87" value="" style="endArrow=none;html=1;rounded=0;" edge="1" parent="1">
          <mxGeometry width="50" height="50" relative="1" as="geometry">
            <mxPoint x="298" y="330" as="sourcePoint" />
            <mxPoint x="478" y="330" as="targetPoint" />
          </mxGeometry>
        </mxCell>
        <mxCell id="LMQ09DLQnsgns6uZQvVl-88" value="" style="endArrow=none;html=1;rounded=0;" edge="1" parent="1">
          <mxGeometry width="50" height="50" relative="1" as="geometry">
            <mxPoint x="477" y="330" as="sourcePoint" />
            <mxPoint x="477" y="320" as="targetPoint" />
          </mxGeometry>
        </mxCell>
        <mxCell id="LMQ09DLQnsgns6uZQvVl-89" value="" style="endArrow=classic;html=1;rounded=0;" edge="1" parent="1">
          <mxGeometry width="50" height="50" relative="1" as="geometry">
            <mxPoint x="399.5" y="330" as="sourcePoint" />
            <mxPoint x="399.5" y="350" as="targetPoint" />
          </mxGeometry>
        </mxCell>
        <mxCell id="LMQ09DLQnsgns6uZQvVl-90" value="" style="endArrow=none;html=1;rounded=0;" edge="1" parent="1">
          <mxGeometry width="50" height="50" relative="1" as="geometry">
            <mxPoint x="300" y="460" as="sourcePoint" />
            <mxPoint x="480" y="460" as="targetPoint" />
          </mxGeometry>
        </mxCell>
        <mxCell id="LMQ09DLQnsgns6uZQvVl-91" value="" style="endArrow=none;html=1;rounded=0;" edge="1" parent="1">
          <mxGeometry width="50" height="50" relative="1" as="geometry">
            <mxPoint x="450" y="384.5" as="sourcePoint" />
            <mxPoint x="480" y="385" as="targetPoint" />
          </mxGeometry>
        </mxCell>
        <mxCell id="LMQ09DLQnsgns6uZQvVl-97" value="" style="endArrow=none;html=1;rounded=0;" edge="1" parent="1">
          <mxGeometry width="50" height="50" relative="1" as="geometry">
            <mxPoint x="479.5" y="460" as="sourcePoint" />
            <mxPoint x="480" y="440" as="targetPoint" />
          </mxGeometry>
        </mxCell>
        <mxCell id="LMQ09DLQnsgns6uZQvVl-98" value="" style="endArrow=classic;html=1;rounded=0;entryX=0.5;entryY=0;entryDx=0;entryDy=0;" edge="1" parent="1">
          <mxGeometry width="50" height="50" relative="1" as="geometry">
            <mxPoint x="484.5" y="493" as="sourcePoint" />
            <mxPoint x="485" y="533" as="targetPoint" />
          </mxGeometry>
        </mxCell>
        <mxCell id="LMQ09DLQnsgns6uZQvVl-101" value="" style="endArrow=classic;html=1;rounded=0;" edge="1" parent="1">
          <mxGeometry width="50" height="50" relative="1" as="geometry">
            <mxPoint x="479.5" y="386" as="sourcePoint" />
            <mxPoint x="479.5" y="416" as="targetPoint" />
          </mxGeometry>
        </mxCell>
        <mxCell id="LMQ09DLQnsgns6uZQvVl-107" value="" style="endArrow=none;html=1;rounded=0;exitX=0.5;exitY=1;exitDx=0;exitDy=0;" edge="1" parent="1" source="LMQ09DLQnsgns6uZQvVl-70">
          <mxGeometry width="50" height="50" relative="1" as="geometry">
            <mxPoint x="484.5" y="565" as="sourcePoint" />
            <mxPoint x="485" y="590" as="targetPoint" />
          </mxGeometry>
        </mxCell>
        <mxCell id="LMQ09DLQnsgns6uZQvVl-108" value="" style="endArrow=none;html=1;rounded=0;" edge="1" parent="1">
          <mxGeometry width="50" height="50" relative="1" as="geometry">
            <mxPoint x="320" y="824.5" as="sourcePoint" />
            <mxPoint x="380" y="825" as="targetPoint" />
          </mxGeometry>
        </mxCell>
        <mxCell id="LMQ09DLQnsgns6uZQvVl-110" value="" style="endArrow=classic;html=1;rounded=0;" edge="1" parent="1">
          <mxGeometry width="50" height="50" relative="1" as="geometry">
            <mxPoint x="380" y="824" as="sourcePoint" />
            <mxPoint x="380" y="854" as="targetPoint" />
          </mxGeometry>
        </mxCell>
        <mxCell id="LMQ09DLQnsgns6uZQvVl-111" value="B=вираз&lt;sub style=&quot;border-color: var(--border-color);&quot;&gt;3&lt;/sub&gt;" style="rounded=0;whiteSpace=wrap;html=1;" vertex="1" parent="1">
          <mxGeometry x="340" y="850" width="74" height="30" as="geometry" />
        </mxCell>
        <mxCell id="LMQ09DLQnsgns6uZQvVl-113" value="" style="endArrow=none;html=1;rounded=0;" edge="1" parent="1">
          <mxGeometry width="50" height="50" relative="1" as="geometry">
            <mxPoint x="220" y="920" as="sourcePoint" />
            <mxPoint x="220" y="880" as="targetPoint" />
          </mxGeometry>
        </mxCell>
        <mxCell id="LMQ09DLQnsgns6uZQvVl-114" value="" style="endArrow=none;html=1;rounded=0;" edge="1" parent="1">
          <mxGeometry width="50" height="50" relative="1" as="geometry">
            <mxPoint x="220" y="920" as="sourcePoint" />
            <mxPoint x="380" y="920" as="targetPoint" />
          </mxGeometry>
        </mxCell>
        <mxCell id="LMQ09DLQnsgns6uZQvVl-117" value="" style="endArrow=none;html=1;rounded=0;" edge="1" parent="1">
          <mxGeometry width="50" height="50" relative="1" as="geometry">
            <mxPoint x="380" y="920" as="sourcePoint" />
            <mxPoint x="380" y="880" as="targetPoint" />
          </mxGeometry>
        </mxCell>
        <mxCell id="LMQ09DLQnsgns6uZQvVl-118" value="" style="endArrow=none;html=1;rounded=0;" edge="1" parent="1">
          <mxGeometry width="50" height="50" relative="1" as="geometry">
            <mxPoint x="440" y="774.75" as="sourcePoint" />
            <mxPoint x="470" y="775" as="targetPoint" />
          </mxGeometry>
        </mxCell>
        <mxCell id="LMQ09DLQnsgns6uZQvVl-119" value="" style="endArrow=classic;html=1;rounded=0;" edge="1" parent="1">
          <mxGeometry width="50" height="50" relative="1" as="geometry">
            <mxPoint x="470" y="775.5" as="sourcePoint" />
            <mxPoint x="470" y="810" as="targetPoint" />
          </mxGeometry>
        </mxCell>
        <mxCell id="LMQ09DLQnsgns6uZQvVl-120" value="B=вираз&lt;sub style=&quot;border-color: var(--border-color);&quot;&gt;1&lt;/sub&gt;" style="rounded=0;whiteSpace=wrap;html=1;" vertex="1" parent="1">
          <mxGeometry x="435" y="810" width="75" height="30" as="geometry" />
        </mxCell>
        <mxCell id="LMQ09DLQnsgns6uZQvVl-121" value="" style="endArrow=none;html=1;rounded=0;" edge="1" parent="1">
          <mxGeometry width="50" height="50" relative="1" as="geometry">
            <mxPoint x="472" y="960" as="sourcePoint" />
            <mxPoint x="472" y="840" as="targetPoint" />
          </mxGeometry>
        </mxCell>
        <mxCell id="LMQ09DLQnsgns6uZQvVl-122" value="" style="endArrow=none;html=1;rounded=0;" edge="1" parent="1">
          <mxGeometry width="50" height="50" relative="1" as="geometry">
            <mxPoint x="284" y="960" as="sourcePoint" />
            <mxPoint x="474" y="960" as="targetPoint" />
          </mxGeometry>
        </mxCell>
        <mxCell id="LMQ09DLQnsgns6uZQvVl-124" value="" style="endArrow=none;html=1;rounded=0;" edge="1" parent="1">
          <mxGeometry width="50" height="50" relative="1" as="geometry">
            <mxPoint x="285" y="920" as="sourcePoint" />
            <mxPoint x="284.5" y="960" as="targetPoint" />
          </mxGeometry>
        </mxCell>
        <mxCell id="LMQ09DLQnsgns6uZQvVl-125" value="" style="endArrow=classic;html=1;rounded=0;" edge="1" parent="1">
          <mxGeometry width="50" height="50" relative="1" as="geometry">
            <mxPoint x="370" y="960" as="sourcePoint" />
            <mxPoint x="370" y="990" as="targetPoint" />
          </mxGeometry>
        </mxCell>
        <mxCell id="LMQ09DLQnsgns6uZQvVl-126" value="y=A+B" style="rounded=0;whiteSpace=wrap;html=1;" vertex="1" parent="1">
          <mxGeometry x="329" y="990" width="85" height="30" as="geometry" />
        </mxCell>
        <mxCell id="LMQ09DLQnsgns6uZQvVl-127" value="y" style="shape=document;whiteSpace=wrap;html=1;boundedLbl=1;" vertex="1" parent="1">
          <mxGeometry x="331.5" y="1050" width="80" height="40" as="geometry" />
        </mxCell>
        <mxCell id="LMQ09DLQnsgns6uZQvVl-129" value="" style="endArrow=classic;html=1;rounded=0;" edge="1" parent="1">
          <mxGeometry width="50" height="50" relative="1" as="geometry">
            <mxPoint x="369" y="1020" as="sourcePoint" />
            <mxPoint x="369" y="1050" as="targetPoint" />
          </mxGeometry>
        </mxCell>
        <mxCell id="LMQ09DLQnsgns6uZQvVl-130" value="кінець" style="ellipse;whiteSpace=wrap;html=1;" vertex="1" parent="1">
          <mxGeometry x="327.25" y="1110" width="88.5" height="50" as="geometry" />
        </mxCell>
        <mxCell id="LMQ09DLQnsgns6uZQvVl-131" value="" style="endArrow=classic;html=1;rounded=0;" edge="1" parent="1">
          <mxGeometry width="50" height="50" relative="1" as="geometry">
            <mxPoint x="371" y="1080" as="sourcePoint" />
            <mxPoint x="371" y="1110" as="targetPoint" />
          </mxGeometry>
        </mxCell>
      </root>
    </mxGraphModel>
  </diagram>
</mxfile>
